<svg width="98" height="90" viewBox="0 0 98 90" fill="none" xmlns="http://www.w3.org/2000/svg">
<path d="M41.7599 24.4028H92.8318C93.9363 24.4028 94.8318 25.2983 94.8318 26.4028V71.1335C94.8318 72.2381 93.9363 73.1335 92.8318 73.1335H53.1849C52.6475 73.1335 52.1327 73.3498 51.7566 73.7336L39.4889 86.2509C38.8619 86.8907 37.7747 86.4467 37.7747 85.551V75.1335C37.7747 74.029 36.8792 73.1335 35.7747 73.1335H27.7882C26.6836 73.1335 25.7882 72.2381 25.7882 71.1335V45.4408" stroke="#6DD2D2" stroke-width="5"/>
<path d="M71.5797 52.3217C73.2467 52.3217 74.5982 50.9702 74.5982 49.3031C74.5982 47.636 73.2467 46.2846 71.5797 46.2846C69.9126 46.2846 68.5611 47.636 68.5611 49.3031C68.5611 50.9702 69.9126 52.3217 71.5797 52.3217Z" fill="#6DD2D2"/>
<path d="M60.9318 52.3217C62.5989 52.3217 63.9504 50.9702 63.9504 49.3031C63.9504 47.636 62.5989 46.2846 60.9318 46.2846C59.2647 46.2846 57.9133 47.636 57.9133 49.3031C57.9133 50.9702 59.2647 52.3217 60.9318 52.3217Z" fill="#6DD2D2"/>
<path d="M50.2839 52.3217C51.951 52.3217 53.3025 50.9702 53.3025 49.3031C53.3025 47.6361 51.951 46.2846 50.2839 46.2846C48.6168 46.2846 47.2654 47.6361 47.2654 49.3031C47.2654 50.9702 48.6168 52.3217 50.2839 52.3217Z" fill="#6DD2D2"/>
<rect x="3.26343" y="18.3079" width="7.96855" height="25.9942" rx="2" stroke="#6DD2D2" stroke-width="5"/>
<path d="M10.4658 42.4048C10.4658 42.4048 15.4576 42.7139 22.0893 44.8336C27.8879 46.6871 32.4033 46.4823 35.5252 45.7728C39.0853 44.9638 41.4834 41.9394 42.3019 38.3814C43.0924 34.9452 43.7539 29.9914 43.2035 23.9935C42.9005 20.6912 39.9826 18.3637 36.6664 18.3637H32.93C31.7676 18.3637 30.8472 17.3764 30.9034 16.2154C31.0206 13.7938 31.1296 9.91427 30.7775 7.75747C30.2399 4.46349 25.6978 2.3875 23.1661 4.07164C20.6345 5.75578 22.5671 9.66622 21.097 13.8932C19.6269 18.1202 15.3894 20.6163 10.603 21.2146" stroke="#6DD2D2" stroke-width="5" stroke-linejoin="round"/>
</svg>
