<svg width="71" height="71" viewBox="0 0 71 71" fill="none" xmlns="http://www.w3.org/2000/svg">
<path d="M49.2798 27.7754C57.8028 31.5847 63.1446 36.3376 62.1817 39.9314C60.8574 44.8735 48.1125 45.7524 33.715 41.8946C19.3175 38.0368 8.71954 30.9032 10.0438 25.9611C10.993 22.4186 17.8106 20.9638 26.8987 21.8449" stroke="white" stroke-width="3"/>
<path d="M48.5669 32.407L49.27 29.7829C50.9697 23.4397 47.2054 16.9196 40.8621 15.22C34.5189 13.5203 27.9989 17.2847 26.2992 23.6279L25.5969 26.249C25.5692 26.3523 25.598 26.4601 25.678 26.531C26.3957 27.1673 30.1602 30.3012 36.4582 31.9887C42.7527 33.6753 47.4444 32.8097 48.36 32.6094C48.4629 32.5869 48.5397 32.5087 48.5669 32.407Z" stroke="white" stroke-width="3"/>
<path d="M31.2627 51.0448L30.0241 55.6675" stroke="white" stroke-width="3" stroke-linecap="round"/>
<path d="M45.9087 52.776L46.5381 57.5202" stroke="white" stroke-width="3" stroke-linecap="round"/>
<path d="M17.7139 45.2213L14.7967 49.0152" stroke="white" stroke-width="3" stroke-linecap="round"/>
</svg>
