<svg width="72" height="72" viewBox="0 0 72 72" fill="none" xmlns="http://www.w3.org/2000/svg">
<path d="M49.6233 28.382C58.1463 32.1912 63.4881 36.9441 62.5252 40.538C61.2009 45.48 48.456 46.359 34.0585 42.5012C19.661 38.6434 9.06305 31.5097 10.3873 26.5677C11.3365 23.0251 18.1541 21.5703 27.2423 22.4514" stroke="#161616" stroke-width="3"/>
<path d="M48.9104 33.0135L49.6135 30.3895C51.3132 24.0462 47.5488 17.5262 41.2056 15.8265C34.8624 14.1269 28.3423 17.8912 26.6427 24.2345L25.9404 26.8555C25.9127 26.9588 25.9414 27.0666 26.0214 27.1375C26.7392 27.7739 30.5037 30.9077 36.8017 32.5953C43.0961 34.2819 47.7879 33.4162 48.7035 33.2159C48.8063 33.1934 48.8831 33.1152 48.9104 33.0135Z" stroke="#161616" stroke-width="3"/>
<path d="M31.6062 51.6514L30.3676 56.2741" stroke="#161616" stroke-width="3" stroke-linecap="round"/>
<path d="M46.2521 53.3826L46.8815 58.1268" stroke="#161616" stroke-width="3" stroke-linecap="round"/>
<path d="M18.0575 45.8279L15.1403 49.6218" stroke="#161616" stroke-width="3" stroke-linecap="round"/>
</svg>
