<svg width="71" height="71" viewBox="0 0 71 71" fill="none" xmlns="http://www.w3.org/2000/svg">
<path d="M60.5865 46.181V18.203C60.5865 17.0984 59.6911 16.203 58.5865 16.203H12.3008C11.1962 16.203 10.3008 17.0984 10.3008 18.203V46.181" stroke="white" stroke-width="3"/>
<path d="M26.9824 47.2996C26.9824 46.6819 26.4816 46.181 25.8638 46.181H5.4436C4.33903 46.181 3.4436 47.0765 3.4436 48.181V52.6844C3.4436 53.789 4.33903 54.6844 5.4436 54.6844H65.4436C66.5482 54.6844 67.4436 53.789 67.4436 52.6844V48.181C67.4436 47.0765 66.5482 46.181 65.4436 46.181H45.0236C44.4058 46.181 43.905 46.6819 43.905 47.2996C43.905 47.9174 43.4041 48.4183 42.7864 48.4183H28.101C27.4832 48.4183 26.9824 47.9174 26.9824 47.2996Z" stroke="white" stroke-width="3"/>
</svg>
