<svg width="72" height="72" viewBox="0 0 72 72" fill="none" xmlns="http://www.w3.org/2000/svg">
<path d="M60.9655 46.4744V18.4965C60.9655 17.3919 60.0701 16.4965 58.9655 16.4965H12.6798C11.5752 16.4965 10.6798 17.3919 10.6798 18.4965V46.4744" stroke="#161616" stroke-width="3"/>
<path d="M27.3614 47.5931C27.3614 46.9753 26.8606 46.4745 26.2428 46.4745H5.82263C4.71806 46.4745 3.82263 47.3699 3.82263 48.4745V52.9779C3.82263 54.0824 4.71806 54.9779 5.82263 54.9779H65.8226C66.9272 54.9779 67.8226 54.0824 67.8226 52.9779V48.4745C67.8226 47.3699 66.9272 46.4745 65.8226 46.4745H45.4026C44.7848 46.4745 44.284 46.9753 44.284 47.5931C44.284 48.2109 43.7832 48.7117 43.1654 48.7117H28.48C27.8622 48.7117 27.3614 48.2109 27.3614 47.5931Z" stroke="#161616" stroke-width="3"/>
</svg>
