<svg width="71" height="71" viewBox="0 0 71 71" fill="none" xmlns="http://www.w3.org/2000/svg">
<path d="M55.6961 52.0374H59.1989C60.3034 52.0374 61.1989 51.142 61.1989 50.0374L61.1989 19.2997L49.8852 7.98596H23.1989C22.0943 7.98596 21.1989 8.88139 21.1989 9.98596V13.0646" stroke="#424242" stroke-width="3" stroke-linecap="round" stroke-linejoin="round"/>
<path d="M49.8851 7.98596L61.1988 19.2997L50.8851 19.2997C50.3328 19.2997 49.8851 18.852 49.8851 18.2997L49.8851 7.98596Z" fill="#424242" stroke="#424242" stroke-width="3" stroke-linecap="round" stroke-linejoin="round"/>
<path d="M38.3852 18.986H11.6989C10.5943 18.986 9.69885 19.8814 9.69885 20.986L9.69885 61.0374C9.69885 62.142 10.5943 63.0374 11.6989 63.0374H47.6989C48.8034 63.0374 49.6989 62.142 49.6989 61.0374L49.6989 30.2997L38.3852 18.986Z" stroke="#161616" stroke-width="3" stroke-linejoin="round"/>
<path d="M38.3851 18.986L49.6988 30.2997L39.3851 30.2997C38.8328 30.2997 38.3851 29.852 38.3851 29.2997L38.3851 18.986Z" fill="#161616" stroke="#161616" stroke-width="3" stroke-linejoin="round"/>
<circle cx="18.4632" cy="38.8119" r="2.19973" fill="#161616"/>
<path d="M24.3292 38.8119H38.911" stroke="#161616" stroke-width="3" stroke-linecap="round"/>
<circle cx="18.4632" cy="45.7427" r="2.19973" fill="#161616"/>
<path d="M24.3292 45.7427H38.911" stroke="#161616" stroke-width="3" stroke-linecap="round"/>
<circle cx="18.4632" cy="52.6734" r="2.19973" fill="#161616"/>
<path d="M24.3292 52.6733H38.911" stroke="#161616" stroke-width="3" stroke-linecap="round"/>
</svg>
