<svg width="72" height="72" viewBox="0 0 72 72" fill="none" xmlns="http://www.w3.org/2000/svg">
<path d="M36.5753 13.069C36.0269 12.8048 35.388 12.8049 34.8396 13.0691L17.3289 21.5041C16.7805 21.7683 16.3823 22.2677 16.2469 22.8611L11.9241 41.81C11.7887 42.4033 11.9309 43.026 12.3103 43.5018L24.4277 58.6966C24.8072 59.1725 25.3827 59.4496 25.9913 59.4496H45.4285C46.0371 59.4496 46.6126 59.1725 46.9921 58.6966L59.1095 43.5018C59.4889 43.026 59.6311 42.4033 59.4957 41.81L55.1729 22.8612C55.0375 22.2678 54.6392 21.7683 54.0908 21.5042L36.5753 13.069Z" stroke="#161616" stroke-width="3"/>
<path d="M35.71 26.2665V38.5753M40.5465 34.3068L35.7188 38.6214C35.7095 38.6298 35.6953 38.6298 35.686 38.6214L30.8734 34.3068" stroke="#161616" stroke-width="3" stroke-linecap="round"/>
<path d="M25.6152 39.7773V43.8342C25.6152 44.9388 26.5107 45.8342 27.6152 45.8342H43.8047C44.9093 45.8342 45.8047 44.9388 45.8047 43.8342V39.7773" stroke="#161616" stroke-width="3" stroke-linecap="round" stroke-linejoin="round"/>
</svg>
