<svg width="72" height="72" viewBox="0 0 72 72" fill="none" xmlns="http://www.w3.org/2000/svg">
<path d="M36.5752 13.4071C36.0268 13.143 35.3879 13.143 34.8395 13.4072L17.3288 21.8423C16.7804 22.1064 16.3822 22.6059 16.2468 23.1993L11.924 42.1481C11.7886 42.7414 11.9308 43.3641 12.3102 43.8399L24.4276 59.0348C24.807 59.5106 25.3826 59.7878 25.9912 59.7878H45.4283C46.037 59.7878 46.6125 59.5106 46.992 59.0348L59.1094 43.8399C59.4888 43.3641 59.6309 42.7414 59.4956 42.1481L55.1728 23.1994C55.0374 22.6059 54.6391 22.1064 54.0907 21.8423L36.5752 13.4071Z" stroke="#FF4856" stroke-width="3"/>
<path d="M35.7099 26.6046V38.9135M40.5464 34.645L35.7187 38.9596C35.7094 38.968 35.6952 38.9679 35.6859 38.9596L30.8733 34.645" stroke="#FF4856" stroke-width="3" stroke-linecap="round"/>
<path d="M25.6151 40.1155V44.1723C25.6151 45.2769 26.5105 46.1723 27.6151 46.1723H43.8046C44.9091 46.1723 45.8046 45.2769 45.8046 44.1723V40.1155" stroke="#FF4856" stroke-width="3" stroke-linecap="round" stroke-linejoin="round"/>
</svg>
