<svg width="72" height="72" viewBox="0 0 72 72" fill="none" xmlns="http://www.w3.org/2000/svg">
<path d="M36.5754 13.069C36.0269 12.8048 35.3881 12.8049 34.8396 13.0691L17.3289 21.5041C16.7806 21.7683 16.3824 22.2677 16.247 22.8611L11.9242 41.81C11.7888 42.4033 11.9309 43.026 12.3104 43.5018L24.4277 58.6966C24.8072 59.1725 25.3828 59.4496 25.9914 59.4496H45.4285C46.0372 59.4496 46.6127 59.1725 46.9922 58.6966L59.1095 43.5018C59.489 43.026 59.6311 42.4033 59.4958 41.81L55.173 22.8612C55.0376 22.2678 54.6393 21.7683 54.0908 21.5042L36.5754 13.069Z" stroke="white" stroke-width="3"/>
<path d="M35.7101 26.2665V38.5753M40.5466 34.3068L35.7189 38.6214C35.7096 38.6298 35.6954 38.6298 35.6861 38.6214L30.8735 34.3068" stroke="white" stroke-width="3" stroke-linecap="round"/>
<path d="M25.6152 39.7773V43.8342C25.6152 44.9388 26.5107 45.8342 27.6152 45.8342H43.8047C44.9093 45.8342 45.8047 44.9388 45.8047 43.8342V39.7773" stroke="white" stroke-width="3" stroke-linecap="round" stroke-linejoin="round"/>
</svg>
