<svg width="71" height="71" viewBox="0 0 71 71" fill="none" xmlns="http://www.w3.org/2000/svg">
<path d="M38.9862 53.451C38.9862 55.4076 37.4001 56.9937 35.4435 56.9937C33.487 56.9937 31.9009 55.4076 31.9009 53.451" stroke="white" stroke-width="3"/>
<path d="M43.2114 46.0317C43.2114 45.8451 43.3157 45.6746 43.4796 45.5855C48.7373 42.7303 52.3067 37.1603 52.3067 30.7567C52.3067 21.4435 44.7568 13.8937 35.4436 13.8937C26.1304 13.8937 18.5806 21.4435 18.5806 30.7567C18.5806 37.1603 22.1499 42.7303 27.4076 45.5855C27.5716 45.6746 27.6758 45.8451 27.6758 46.0317V52.7192C27.6758 52.9953 27.8997 53.2192 28.1758 53.2192H42.7114C42.9875 53.2192 43.2114 52.9953 43.2114 52.7192V46.0317Z" stroke="white" stroke-width="3"/>
<path d="M45.585 30.7567C45.585 25.1558 41.0445 20.6154 35.4436 20.6154" stroke="white" stroke-width="3" stroke-linecap="round"/>
<path d="M42.7859 48.0092L28.1011 48.0092" stroke="white" stroke-width="3" stroke-linecap="round"/>
</svg>
