<svg width="71" height="72" viewBox="0 0 71 72" fill="none" xmlns="http://www.w3.org/2000/svg">
<path d="M39.1042 53.9698C39.1042 55.9264 37.5181 57.5125 35.5616 57.5125C33.605 57.5125 32.0189 55.9264 32.0189 53.9698" stroke="#161616" stroke-width="3"/>
<path d="M43.3293 46.5505C43.3293 46.3639 43.4336 46.1934 43.5975 46.1043C48.8552 43.2491 52.4246 37.6791 52.4246 31.2755C52.4246 21.9623 44.8747 14.4125 35.5615 14.4125C26.2483 14.4125 18.6985 21.9623 18.6985 31.2755C18.6985 37.6791 22.2678 43.2491 27.5255 46.1043C27.6895 46.1934 27.7938 46.3639 27.7938 46.5505V53.238C27.7938 53.5141 28.0176 53.738 28.2938 53.738H42.8293C43.1054 53.738 43.3293 53.5141 43.3293 53.238V46.5505Z" stroke="#161616" stroke-width="3"/>
<path d="M45.7029 31.2755C45.7029 25.6746 41.1625 21.1342 35.5616 21.1342" stroke="#161616" stroke-width="3" stroke-linecap="round"/>
<path d="M42.904 48.528L28.2191 48.528" stroke="#161616" stroke-width="3" stroke-linecap="round"/>
</svg>
