<svg width="72" height="72" viewBox="0 0 72 72" fill="none" xmlns="http://www.w3.org/2000/svg">
<path fill-rule="evenodd" clip-rule="evenodd" d="M53.1434 34.3025C53.1434 34.2465 53.098 34.2011 53.042 34.2011H47.9411C47.8851 34.2011 47.8397 34.2465 47.8397 34.3025V37.7459C47.8397 37.793 47.8073 37.8338 47.7616 37.8449C46.591 38.1288 45.4901 38.5911 44.4894 39.2015C44.4492 39.226 44.3974 39.22 44.3642 39.1867L41.9284 36.751C41.8888 36.7114 41.8246 36.7114 41.7851 36.751L38.1781 40.3579C38.1386 40.3975 38.1386 40.4617 38.1781 40.5012L40.614 42.9371C40.6473 42.9704 40.6532 43.0221 40.6288 43.0623C40.0185 44.063 39.5562 45.1639 39.2724 46.3345C39.2613 46.3802 39.2205 46.4126 39.1734 46.4126H35.7296C35.6736 46.4126 35.6282 46.458 35.6282 46.514V51.6149C35.6282 51.6709 35.6736 51.7163 35.7296 51.7163H39.1734C39.2205 51.7163 39.2613 51.7487 39.2724 51.7944C39.5562 52.965 40.0185 54.0659 40.6288 55.0666C40.6533 55.1068 40.6473 55.1585 40.614 55.1918L38.1782 57.6276C38.1386 57.6672 38.1386 57.7314 38.1782 57.771L41.7851 61.3779C41.8247 61.4175 41.8889 61.4175 41.9285 61.3779L44.3642 58.9422C44.3975 58.9089 44.4492 58.9029 44.4894 58.9274C45.4901 59.5378 46.591 60.0001 47.7616 60.284C47.8073 60.295 47.8397 60.3359 47.8397 60.3829V63.8265C47.8397 63.8825 47.8851 63.9279 47.9411 63.9279H53.042C53.098 63.9279 53.1434 63.8825 53.1434 63.8265V60.3832C53.1434 60.3361 53.1758 60.2953 53.2215 60.2842C54.3923 60.0004 55.4933 59.5381 56.4942 58.9277C56.5343 58.9032 56.5861 58.9092 56.6194 58.9425L59.0548 61.3779C59.0944 61.4175 59.1586 61.4175 59.1982 61.3779L62.8051 57.771C62.8447 57.7314 62.8447 57.6672 62.8051 57.6277L60.3698 55.1923C60.3365 55.159 60.3305 55.1073 60.355 55.0671C60.9655 54.0662 61.4278 52.9652 61.7117 51.7944C61.7228 51.7487 61.7636 51.7163 61.8107 51.7163H65.2537C65.3097 51.7163 65.3551 51.6709 65.3551 51.6149V46.514C65.3551 46.458 65.3097 46.4126 65.2537 46.4126H61.8107C61.7636 46.4126 61.7228 46.3802 61.7117 46.3345C61.4278 45.1637 60.9655 44.0626 60.355 43.0618C60.3305 43.0216 60.3365 42.9699 60.3698 42.9366L62.8051 40.5012C62.8447 40.4616 62.8447 40.3975 62.8051 40.3579L59.1982 36.751C59.1586 36.7114 59.0945 36.7114 59.0549 36.751L56.6194 39.1864C56.5861 39.2197 56.5344 39.2256 56.4942 39.2011C55.4933 38.5908 54.3923 38.1285 53.2215 37.8447C53.1758 37.8336 53.1434 37.7927 53.1434 37.7457V34.3025ZM50.4918 54.4391C53.4601 54.4391 55.8664 52.0328 55.8664 49.0644C55.8664 46.0961 53.4601 43.6897 50.4918 43.6897C47.5234 43.6897 45.1171 46.0961 45.1171 49.0644C45.1171 52.0328 47.5234 54.4391 50.4918 54.4391Z" stroke="#FF4856" stroke-width="3"/>
<path d="M50.3418 28.2709V21.7237C50.3418 21.366 50.1507 21.0355 49.8406 20.857L28.7661 8.72705C28.4646 8.55351 28.0946 8.54914 27.7891 8.71551L6.74118 20.1768C6.41958 20.3519 6.21942 20.6888 6.21941 21.055L6.21882 46.6088C6.21882 46.9665 6.40993 47.297 6.72001 47.4755L27.7955 59.6049C28.097 59.7784 28.467 59.7828 28.7725 59.6164L32.2261 57.7358" stroke="#FF4856" stroke-width="3" stroke-linecap="round" stroke-linejoin="round"/>
<path d="M49.6754 21.5088L28.2808 33.1589L6.73767 20.7592" stroke="#FF4856" stroke-width="3" stroke-linecap="round" stroke-linejoin="round"/>
<path d="M16.4561 26.6085L38.3196 14.7575" stroke="#FF4856" stroke-width="3"/>
<path d="M28.2806 32.5006V59.8842" stroke="#FF4856" stroke-width="3"/>
</svg>
