<svg version="1.1" id="Layer_1" xmlns="http://www.w3.org/2000/svg" xmlns:xlink="http://www.w3.org/1999/xlink" x="0px" y="0px"
	 width="100%" viewBox="0 0 285 285" enable-background="new 0 0 285 285" xml:space="preserve">
<path fill="#000000" opacity="1.000000" stroke="none" 
	d="
M159.000000,286.000000 
	C106.023033,286.000000 53.546062,286.000000 1.034547,286.000000 
	C1.034547,191.064713 1.034547,96.129417 1.034547,1.097060 
	C95.893524,1.097060 190.787186,1.097060 285.840424,1.097060 
	C285.840424,95.999786 285.840424,190.999863 285.840424,286.000000 
	C243.796265,286.000000 201.648132,286.000000 159.000000,286.000000 
M53.231998,50.027176 
	C44.789848,52.108334 41.829479,55.291466 41.025131,63.928169 
	C41.016796,118.087730 41.004070,172.247284 41.004780,226.406845 
	C41.004887,234.702469 47.331913,240.978958 55.881401,240.983490 
	C114.040573,241.014328 172.199783,241.021362 230.358948,240.976440 
	C239.256378,240.969559 245.953247,234.462296 245.964645,225.650650 
	C246.033890,172.157608 246.046539,118.664368 245.958130,65.171387 
	C245.940857,54.717991 237.847260,49.831360 230.466095,49.863369 
	C173.307861,50.111263 116.148048,49.998680 58.988731,50.007084 
	C57.325935,50.007328 55.663151,50.111172 53.231998,50.027176 
z"/>
<path fill="#FF4856" opacity="1.000000" stroke="none" 
	d="
M54.000362,50.166710 
	C55.663151,50.111172 57.325935,50.007328 58.988731,50.007084 
	C116.148048,49.998680 173.307861,50.111263 230.466095,49.863369 
	C237.847260,49.831360 245.940857,54.717991 245.958130,65.171387 
	C246.046539,118.664368 246.033890,172.157608 245.964645,225.650650 
	C245.953247,234.462296 239.256378,240.969559 230.358948,240.976440 
	C172.199783,241.021362 114.040573,241.014328 55.881401,240.983490 
	C47.331913,240.978958 41.004887,234.702469 41.004780,226.406845 
	C41.004070,172.247284 41.016796,118.087730 41.451366,63.431286 
	C46.939880,59.648273 52.249680,56.597160 54.000362,50.166710 
M143.500000,228.000061 
	C171.497650,228.000046 199.495941,227.905807 227.492294,228.096237 
	C231.964478,228.126648 233.104736,226.719482 233.087540,222.393387 
	C232.936401,184.397171 233.003052,146.400085 232.988007,108.403267 
	C232.987442,106.980667 232.811172,105.558136 232.724457,104.251144 
	C172.967789,104.251144 113.699562,104.251144 54.298836,104.251144 
	C54.298836,145.556625 54.298836,186.610291 54.298836,228.000061 
	C83.897797,228.000061 113.198898,228.000061 143.500000,228.000061 
M122.500000,91.000076 
	C159.249832,91.000076 195.999664,91.000076 232.610565,91.000076 
	C232.610565,81.257408 232.610565,72.199127 232.610565,63.251472 
	C172.957336,63.251472 113.693901,63.251472 54.300911,63.251472 
	C54.300911,72.560608 54.300911,81.615784 54.300911,91.000076 
	C76.900421,91.000076 99.200211,91.000076 122.500000,91.000076 
z"/>
<path fill="#FF4856" opacity="1.000000" stroke="none" 
	d="
M53.616180,50.096943 
	C52.249680,56.597160 46.939880,59.648273 41.522152,62.967384 
	C41.829479,55.291466 44.789848,52.108334 53.616180,50.096943 
z"/>
<path fill="#000000" opacity="1.000000" stroke="none" 
	d="
M143.000000,228.000061 
	C113.198898,228.000061 83.897797,228.000061 54.298836,228.000061 
	C54.298836,186.610291 54.298836,145.556625 54.298836,104.251144 
	C113.699562,104.251144 172.967789,104.251144 232.724457,104.251144 
	C232.811172,105.558136 232.987442,106.980667 232.988007,108.403267 
	C233.003052,146.400085 232.936401,184.397171 233.087540,222.393387 
	C233.104736,226.719482 231.964478,228.126648 227.492294,228.096237 
	C199.495941,227.905807 171.497650,228.000046 143.000000,228.000061 
M145.999176,192.917984 
	C143.477783,188.261734 141.952728,182.517059 138.261826,179.138412 
	C122.621590,164.821426 90.041939,164.592468 75.678360,182.779297 
	C70.804405,188.950577 69.766563,195.856094 71.730400,203.131348 
	C73.661316,210.284637 80.049728,211.699692 86.091820,211.864151 
	C101.073380,212.271988 116.076927,212.184738 131.064499,211.908264 
	C137.271454,211.793762 143.417984,210.365051 145.281860,203.101608 
	C146.042435,200.137589 145.790878,196.913834 145.999176,192.917984 
M129.720490,137.251480 
	C124.363701,118.841919 102.565468,115.476257 92.582565,127.810570 
	C86.021599,135.916931 85.549751,144.012527 89.853226,152.163681 
	C94.627655,161.206879 104.904396,165.057312 114.090660,162.488068 
	C123.007912,159.994064 131.607880,151.338272 129.720490,137.251480 
M186.679199,136.000000 
	C185.847198,136.000031 185.015106,135.992523 184.183197,136.001328 
	C179.336075,136.052628 176.987747,138.025726 177.001556,142.030212 
	C177.015350,146.031998 179.358124,147.984940 184.245148,147.995010 
	C192.731583,148.012512 201.220596,147.876373 209.703522,148.050095 
	C214.109512,148.140320 215.815903,145.340622 215.820816,141.949463 
	C215.825821,138.488846 213.938156,135.843658 209.602646,135.950821 
	C202.285446,136.131683 194.960526,136.000153 186.679199,136.000000 
M195.503754,159.999985 
	C191.345367,160.000214 187.185928,159.941742 183.028915,160.017593 
	C179.059692,160.090012 176.930298,162.162140 177.021591,166.181961 
	C177.106766,169.932816 179.120758,171.965912 182.895996,171.984619 
	C191.877869,172.029129 200.861038,171.923386 209.841827,172.031921 
	C214.209122,172.084702 215.879868,169.233459 215.822357,165.818817 
	C215.769012,162.651489 214.090866,159.860321 209.972412,159.972855 
	C205.484726,160.095459 200.991074,160.000244 195.503754,159.999985 
M204.400330,183.999985 
	C197.245209,184.000275 190.089905,183.971802 182.935013,184.012558 
	C179.165619,184.034042 177.161942,186.022980 177.011353,189.781052 
	C176.859726,193.565781 178.851669,195.855408 182.499130,195.931976 
	C191.813324,196.127518 201.135651,196.088715 210.452026,195.955078 
	C214.520706,195.896744 216.831329,191.668106 215.438217,187.837067 
	C213.505051,182.520828 209.082306,184.307114 204.400330,183.999985 
z"/>
<path fill="#000000" opacity="1.000000" stroke="none" 
	d="
M122.000000,91.000076 
	C99.200211,91.000076 76.900421,91.000076 54.300911,91.000076 
	C54.300911,81.615784 54.300911,72.560608 54.300911,63.251472 
	C113.693901,63.251472 172.957336,63.251472 232.610565,63.251472 
	C232.610565,72.199127 232.610565,81.257408 232.610565,91.000076 
	C195.999664,91.000076 159.249832,91.000076 122.000000,91.000076 
z"/>
<path fill="#FF4856" opacity="1.000000" stroke="none" 
	d="
M145.999481,193.363129 
	C145.790878,196.913834 146.042435,200.137589 145.281860,203.101608 
	C143.417984,210.365051 137.271454,211.793762 131.064499,211.908264 
	C116.076927,212.184738 101.073380,212.271988 86.091820,211.864151 
	C80.049728,211.699692 73.661316,210.284637 71.730400,203.131348 
	C69.766563,195.856094 70.804405,188.950577 75.678360,182.779297 
	C90.041939,164.592468 122.621590,164.821426 138.261826,179.138412 
	C141.952728,182.517059 143.477783,188.261734 145.999481,193.363129 
M87.461456,189.028534 
	C84.475235,191.603546 83.216606,194.719727 84.259903,198.320251 
	C100.911415,198.320251 117.358025,198.320251 133.959763,198.320251 
	C131.871246,190.525131 129.680634,187.340637 123.613594,184.985886 
	C111.232735,180.180649 99.150154,180.050476 87.461456,189.028534 
z"/>
<path fill="#FF4856" opacity="1.000000" stroke="none" 
	d="
M129.838547,137.664871 
	C131.607880,151.338272 123.007912,159.994064 114.090660,162.488068 
	C104.904396,165.057312 94.627655,161.206879 89.853226,152.163681 
	C85.549751,144.012527 86.021599,135.916931 92.582565,127.810570 
	C102.565468,115.476257 124.363701,118.841919 129.838547,137.664871 
M111.383621,133.996231 
	C107.535873,131.693985 104.378052,134.096191 102.393745,136.502167 
	C100.891022,138.324249 100.628708,141.795181 100.980408,144.373291 
	C101.500412,148.185120 104.221619,150.085220 108.338448,150.058624 
	C112.243759,150.033371 115.133972,148.610168 116.479851,144.965759 
	C118.248917,140.175415 116.094482,136.707275 111.383621,133.996231 
z"/>
<path fill="#FF4856" opacity="1.000000" stroke="none" 
	d="
M187.159027,136.000000 
	C194.960526,136.000153 202.285446,136.131683 209.602646,135.950821 
	C213.938156,135.843658 215.825821,138.488846 215.820816,141.949463 
	C215.815903,145.340622 214.109512,148.140320 209.703522,148.050095 
	C201.220596,147.876373 192.731583,148.012512 184.245148,147.995010 
	C179.358124,147.984940 177.015350,146.031998 177.001556,142.030212 
	C176.987747,138.025726 179.336075,136.052628 184.183197,136.001328 
	C185.015106,135.992523 185.847198,136.000031 187.159027,136.000000 
z"/>
<path fill="#FF4856" opacity="1.000000" stroke="none" 
	d="
M196.001892,159.999985 
	C200.991074,160.000244 205.484726,160.095459 209.972412,159.972855 
	C214.090866,159.860321 215.769012,162.651489 215.822357,165.818817 
	C215.879868,169.233459 214.209122,172.084702 209.841827,172.031921 
	C200.861038,171.923386 191.877869,172.029129 182.895996,171.984619 
	C179.120758,171.965912 177.106766,169.932816 177.021591,166.181961 
	C176.930298,162.162140 179.059692,160.090012 183.028915,160.017593 
	C187.185928,159.941742 191.345367,160.000214 196.001892,159.999985 
z"/>
<path fill="#FF4856" opacity="1.000000" stroke="none" 
	d="
M204.881104,183.999985 
	C209.082306,184.307114 213.505051,182.520828 215.438217,187.837067 
	C216.831329,191.668106 214.520706,195.896744 210.452026,195.955078 
	C201.135651,196.088715 191.813324,196.127518 182.499130,195.931976 
	C178.851669,195.855408 176.859726,193.565781 177.011353,189.781052 
	C177.161942,186.022980 179.165619,184.034042 182.935013,184.012558 
	C190.089905,183.971802 197.245209,184.000275 204.881104,183.999985 
z"/>
<path fill="#000000" opacity="1.000000" stroke="none" 
	d="
M87.730316,188.764801 
	C99.150154,180.050476 111.232735,180.180649 123.613594,184.985886 
	C129.680634,187.340637 131.871246,190.525131 133.959763,198.320251 
	C117.358025,198.320251 100.911415,198.320251 84.259903,198.320251 
	C83.216606,194.719727 84.475235,191.603546 87.730316,188.764801 
z"/>
<path fill="#000000" opacity="1.000000" stroke="none" 
	d="
M111.770950,134.026581 
	C116.094482,136.707275 118.248917,140.175415 116.479851,144.965759 
	C115.133972,148.610168 112.243759,150.033371 108.338448,150.058624 
	C104.221619,150.085220 101.500412,148.185120 100.980408,144.373291 
	C100.628708,141.795181 100.891022,138.324249 102.393745,136.502167 
	C104.378052,134.096191 107.535873,131.693985 111.770950,134.026581 
z"/>
</svg>