<svg width="71" height="72" viewBox="0 0 71 72" fill="none" xmlns="http://www.w3.org/2000/svg">
<rect width="48" height="44.5286" rx="2" transform="matrix(-1 0 0 1 59.5618 13.8109)" stroke="#FF4856" stroke-width="3"/>
<path d="M59.3814 24.1679H11.7423" stroke="#FF4856" stroke-width="3"/>
<path d="M52.1075 47.2537L45.5828 47.2537" stroke="#FF4856" stroke-width="3" stroke-linecap="round" stroke-linejoin="round"/>
<path d="M52.1075 41.2537L45.5828 41.2537" stroke="#FF4856" stroke-width="3" stroke-linecap="round" stroke-linejoin="round"/>
<path d="M52.1075 35.2537L45.5828 35.2537" stroke="#FF4856" stroke-width="3" stroke-linecap="round" stroke-linejoin="round"/>
<circle cx="26.9038" cy="35.2115" r="3.73297" stroke="#FF4856" stroke-width="3"/>
<path d="M32.9542 51.0287C34.1139 51.0287 34.7911 50.2063 34.7911 49.1919C34.7911 46.4089 32.3142 44.4112 29.2117 43.8059C27.626 43.4965 26.1813 43.4965 24.5956 43.8059C21.4931 44.4112 19.0162 46.4089 19.0162 49.1919C19.0162 50.2063 19.6933 51.0287 20.853 51.0287C24.89 51.0287 28.9332 51.0287 32.9542 51.0287Z" stroke="#FF4856" stroke-width="3"/>
</svg>
